<mxfile host="Electron" modified="2023-07-18T02:25:41.996Z" agent="Mozilla/5.0 (Macintosh; Intel Mac OS X 10_15_7) AppleWebKit/537.36 (KHTML, like Gecko) draw.io/21.5.1 Chrome/112.0.5615.204 Electron/24.6.0 Safari/537.36" etag="HUGfG9qYjptb70Dis8OB" version="21.5.1" type="device">
  <diagram name="第 1 页" id="hc7vLQAW5w1w-Gk_P-db">
    <mxGraphModel dx="1114" dy="793" grid="0" gridSize="10" guides="1" tooltips="1" connect="1" arrows="1" fold="1" page="0" pageScale="1" pageWidth="827" pageHeight="1169" math="0" shadow="0">
      <root>
        <mxCell id="0" />
        <mxCell id="1" parent="0" />
        <mxCell id="pcfbquQIk59ZZeOw6JVN-1" value="" style="rounded=0;whiteSpace=wrap;html=1;fillColor=#E6E6E6;dashed=1;" vertex="1" parent="1">
          <mxGeometry x="210" y="310" width="270" height="70" as="geometry" />
        </mxCell>
        <mxCell id="pcfbquQIk59ZZeOw6JVN-2" value="" style="rounded=0;whiteSpace=wrap;html=1;fillColor=#E6E6E6;dashed=1;" vertex="1" parent="1">
          <mxGeometry x="210" y="380" width="270" height="70" as="geometry" />
        </mxCell>
        <mxCell id="pcfbquQIk59ZZeOw6JVN-3" value="" style="rounded=0;whiteSpace=wrap;html=1;dashed=1;strokeColor=#000000;fillColor=#E6E6E6;" vertex="1" parent="1">
          <mxGeometry x="210" y="450" width="270" height="310" as="geometry" />
        </mxCell>
        <mxCell id="pcfbquQIk59ZZeOw6JVN-4" value="InterpFrameA" style="rounded=0;whiteSpace=wrap;html=1;" vertex="1" parent="1">
          <mxGeometry x="130" y="210" width="120" height="60" as="geometry" />
        </mxCell>
        <mxCell id="pcfbquQIk59ZZeOw6JVN-5" value="&lt;span style&gt;InterpFrameB&lt;/span&gt;" style="rounded=0;whiteSpace=wrap;html=1;" vertex="1" parent="1">
          <mxGeometry x="320" y="210" width="120" height="60" as="geometry" />
        </mxCell>
        <mxCell id="pcfbquQIk59ZZeOw6JVN-6" value="&lt;span style&gt;InterpFrameC&lt;/span&gt;" style="rounded=0;whiteSpace=wrap;html=1;" vertex="1" parent="1">
          <mxGeometry x="530" y="210" width="120" height="60" as="geometry" />
        </mxCell>
        <mxCell id="pcfbquQIk59ZZeOw6JVN-7" value="FuncionInstanceA" style="html=1;" vertex="1" parent="1">
          <mxGeometry x="135" y="130" width="110" height="50" as="geometry" />
        </mxCell>
        <mxCell id="pcfbquQIk59ZZeOw6JVN-8" value="FuncionInstanceB" style="html=1;" vertex="1" parent="1">
          <mxGeometry x="325" y="130" width="110" height="50" as="geometry" />
        </mxCell>
        <mxCell id="pcfbquQIk59ZZeOw6JVN-9" value="FuncionInstanceC" style="html=1;" vertex="1" parent="1">
          <mxGeometry x="530" y="130" width="110" height="50" as="geometry" />
        </mxCell>
        <mxCell id="pcfbquQIk59ZZeOw6JVN-10" value="" style="endArrow=open;endFill=1;endSize=12;html=1;entryX=1;entryY=0.5;entryDx=0;entryDy=0;" edge="1" parent="1" source="pcfbquQIk59ZZeOw6JVN-5" target="pcfbquQIk59ZZeOw6JVN-4">
          <mxGeometry width="160" relative="1" as="geometry">
            <mxPoint x="330" y="310" as="sourcePoint" />
            <mxPoint x="490" y="310" as="targetPoint" />
          </mxGeometry>
        </mxCell>
        <mxCell id="pcfbquQIk59ZZeOw6JVN-11" value="prev" style="edgeLabel;html=1;align=center;verticalAlign=middle;resizable=0;points=[];" connectable="0" vertex="1" parent="pcfbquQIk59ZZeOw6JVN-10">
          <mxGeometry x="-0.2286" y="1" relative="1" as="geometry">
            <mxPoint y="-11" as="offset" />
          </mxGeometry>
        </mxCell>
        <mxCell id="pcfbquQIk59ZZeOw6JVN-12" value="" style="endArrow=open;endFill=1;endSize=12;html=1;entryX=1;entryY=0.5;entryDx=0;entryDy=0;exitX=0;exitY=0.5;exitDx=0;exitDy=0;" edge="1" parent="1" source="pcfbquQIk59ZZeOw6JVN-6" target="pcfbquQIk59ZZeOw6JVN-5">
          <mxGeometry width="160" relative="1" as="geometry">
            <mxPoint x="505" y="239.5" as="sourcePoint" />
            <mxPoint x="435" y="239.5" as="targetPoint" />
          </mxGeometry>
        </mxCell>
        <mxCell id="pcfbquQIk59ZZeOw6JVN-13" value="prev" style="edgeLabel;html=1;align=center;verticalAlign=middle;resizable=0;points=[];" connectable="0" vertex="1" parent="pcfbquQIk59ZZeOw6JVN-12">
          <mxGeometry x="-0.2286" y="1" relative="1" as="geometry">
            <mxPoint x="-5" y="-11" as="offset" />
          </mxGeometry>
        </mxCell>
        <mxCell id="pcfbquQIk59ZZeOw6JVN-14" value="" style="endArrow=open;endFill=1;endSize=12;html=1;dashed=1;entryX=0.5;entryY=1;entryDx=0;entryDy=0;exitX=0.5;exitY=0;exitDx=0;exitDy=0;" edge="1" parent="1" source="pcfbquQIk59ZZeOw6JVN-4" target="pcfbquQIk59ZZeOw6JVN-7">
          <mxGeometry width="160" relative="1" as="geometry">
            <mxPoint x="130" y="190" as="sourcePoint" />
            <mxPoint x="260" y="250" as="targetPoint" />
          </mxGeometry>
        </mxCell>
        <mxCell id="pcfbquQIk59ZZeOw6JVN-15" value="" style="endArrow=open;endFill=1;endSize=12;html=1;dashed=1;entryX=0.5;entryY=1;entryDx=0;entryDy=0;exitX=0.5;exitY=0;exitDx=0;exitDy=0;" edge="1" parent="1">
          <mxGeometry width="160" relative="1" as="geometry">
            <mxPoint x="379.5" y="210" as="sourcePoint" />
            <mxPoint x="379.5" y="180" as="targetPoint" />
          </mxGeometry>
        </mxCell>
        <mxCell id="pcfbquQIk59ZZeOw6JVN-16" value="" style="endArrow=open;endFill=1;endSize=12;html=1;dashed=1;entryX=0.5;entryY=1;entryDx=0;entryDy=0;exitX=0.5;exitY=0;exitDx=0;exitDy=0;" edge="1" parent="1">
          <mxGeometry width="160" relative="1" as="geometry">
            <mxPoint x="584.5" y="210" as="sourcePoint" />
            <mxPoint x="584.5" y="180" as="targetPoint" />
          </mxGeometry>
        </mxCell>
        <mxCell id="pcfbquQIk59ZZeOw6JVN-17" value="parameters" style="rounded=0;whiteSpace=wrap;html=1;" vertex="1" parent="1">
          <mxGeometry x="270" y="460" width="160" height="40" as="geometry" />
        </mxCell>
        <mxCell id="pcfbquQIk59ZZeOw6JVN-18" value="" style="endArrow=classic;html=1;" edge="1" parent="1">
          <mxGeometry width="50" height="50" relative="1" as="geometry">
            <mxPoint x="650" y="320" as="sourcePoint" />
            <mxPoint x="650" y="770" as="targetPoint" />
          </mxGeometry>
        </mxCell>
        <mxCell id="pcfbquQIk59ZZeOw6JVN-19" value="Low" style="text;html=1;strokeColor=none;fillColor=none;align=center;verticalAlign=middle;whiteSpace=wrap;rounded=0;fontSize=16;" vertex="1" parent="1">
          <mxGeometry x="660" y="310" width="40" height="20" as="geometry" />
        </mxCell>
        <mxCell id="pcfbquQIk59ZZeOw6JVN-20" value="High" style="text;html=1;strokeColor=none;fillColor=none;align=center;verticalAlign=middle;whiteSpace=wrap;rounded=0;fontSize=16;" vertex="1" parent="1">
          <mxGeometry x="670" y="740" width="40" height="20" as="geometry" />
        </mxCell>
        <mxCell id="pcfbquQIk59ZZeOw6JVN-21" value="locals" style="rounded=0;whiteSpace=wrap;html=1;" vertex="1" parent="1">
          <mxGeometry x="270" y="500" width="160" height="40" as="geometry" />
        </mxCell>
        <mxCell id="pcfbquQIk59ZZeOw6JVN-22" value="operands&lt;br /&gt;stack" style="rounded=0;whiteSpace=wrap;html=1;" vertex="1" parent="1">
          <mxGeometry x="270" y="540" width="160" height="100" as="geometry" />
        </mxCell>
        <mxCell id="pcfbquQIk59ZZeOw6JVN-23" value="control-block&lt;br /&gt;stack" style="rounded=0;whiteSpace=wrap;html=1;" vertex="1" parent="1">
          <mxGeometry x="270" y="640" width="160" height="100" as="geometry" />
        </mxCell>
        <mxCell id="pcfbquQIk59ZZeOw6JVN-24" value="" style="endArrow=classic;html=1;entryX=1;entryY=0;entryDx=0;entryDy=0;exitX=0;exitY=1;exitDx=0;exitDy=0;edgeStyle=orthogonalEdgeStyle;curved=1;dashed=1;" edge="1" parent="1" source="pcfbquQIk59ZZeOw6JVN-6" target="pcfbquQIk59ZZeOw6JVN-17">
          <mxGeometry width="50" height="50" relative="1" as="geometry">
            <mxPoint x="580" y="480" as="sourcePoint" />
            <mxPoint x="620" y="470" as="targetPoint" />
            <Array as="points">
              <mxPoint x="530" y="460" />
            </Array>
          </mxGeometry>
        </mxCell>
        <mxCell id="pcfbquQIk59ZZeOw6JVN-25" value="frame.lp" style="edgeLabel;html=1;align=center;verticalAlign=middle;resizable=0;points=[];" connectable="0" vertex="1" parent="pcfbquQIk59ZZeOw6JVN-24">
          <mxGeometry x="0.3556" y="-13" relative="1" as="geometry">
            <mxPoint x="-33" y="13" as="offset" />
          </mxGeometry>
        </mxCell>
        <mxCell id="pcfbquQIk59ZZeOw6JVN-26" value="frame.sp" style="edgeLabel;html=1;align=center;verticalAlign=middle;resizable=0;points=[];fontColor=#FF3333;" connectable="0" vertex="1" parent="1">
          <mxGeometry x="460" y="550" as="geometry" />
        </mxCell>
        <mxCell id="pcfbquQIk59ZZeOw6JVN-27" value="" style="endArrow=classic;html=1;entryX=1;entryY=0;entryDx=0;entryDy=0;edgeStyle=orthogonalEdgeStyle;curved=1;dashed=1;strokeColor=#FF3333;" edge="1" parent="1" source="pcfbquQIk59ZZeOw6JVN-6" target="pcfbquQIk59ZZeOw6JVN-22">
          <mxGeometry width="50" height="50" relative="1" as="geometry">
            <mxPoint x="540" y="390" as="sourcePoint" />
            <mxPoint x="440" y="470" as="targetPoint" />
            <Array as="points">
              <mxPoint x="550" y="540" />
            </Array>
          </mxGeometry>
        </mxCell>
        <mxCell id="pcfbquQIk59ZZeOw6JVN-28" value="" style="endArrow=classic;html=1;entryX=1;entryY=0;entryDx=0;entryDy=0;edgeStyle=orthogonalEdgeStyle;curved=1;dashed=1;strokeColor=#FF3333;" edge="1" parent="1" source="pcfbquQIk59ZZeOw6JVN-6">
          <mxGeometry width="50" height="50" relative="1" as="geometry">
            <mxPoint x="545" y="480" as="sourcePoint" />
            <mxPoint x="435" y="640" as="targetPoint" />
            <Array as="points">
              <mxPoint x="550" y="640" />
            </Array>
          </mxGeometry>
        </mxCell>
        <mxCell id="pcfbquQIk59ZZeOw6JVN-29" value="frame.sp_boundary" style="edgeLabel;html=1;align=center;verticalAlign=middle;resizable=0;points=[];fontColor=#FF3333;" connectable="0" vertex="1" parent="1">
          <mxGeometry x="490" y="570" as="geometry">
            <mxPoint x="-4" y="52" as="offset" />
          </mxGeometry>
        </mxCell>
        <mxCell id="pcfbquQIk59ZZeOw6JVN-30" value="" style="endArrow=classic;html=1;entryX=1;entryY=0;entryDx=0;entryDy=0;edgeStyle=orthogonalEdgeStyle;curved=1;dashed=1;exitX=0.75;exitY=1;exitDx=0;exitDy=0;strokeColor=#0000FF;" edge="1" parent="1" source="pcfbquQIk59ZZeOw6JVN-6" target="pcfbquQIk59ZZeOw6JVN-23">
          <mxGeometry width="50" height="50" relative="1" as="geometry">
            <mxPoint x="560" y="390" as="sourcePoint" />
            <mxPoint x="445" y="650" as="targetPoint" />
            <Array as="points">
              <mxPoint x="620" y="640" />
            </Array>
          </mxGeometry>
        </mxCell>
        <mxCell id="pcfbquQIk59ZZeOw6JVN-31" value="frame.csp" style="edgeLabel;html=1;align=center;verticalAlign=middle;resizable=0;points=[];fontColor=#0000FF;" connectable="0" vertex="1" parent="1">
          <mxGeometry x="470" y="560" as="geometry">
            <mxPoint x="-7" y="92" as="offset" />
          </mxGeometry>
        </mxCell>
        <mxCell id="pcfbquQIk59ZZeOw6JVN-32" value="" style="endArrow=classic;html=1;entryX=1;entryY=1;entryDx=0;entryDy=0;edgeStyle=orthogonalEdgeStyle;curved=1;dashed=1;exitX=0.75;exitY=1;exitDx=0;exitDy=0;strokeColor=#0000FF;" edge="1" parent="1" source="pcfbquQIk59ZZeOw6JVN-6" target="pcfbquQIk59ZZeOw6JVN-23">
          <mxGeometry width="50" height="50" relative="1" as="geometry">
            <mxPoint x="630" y="390" as="sourcePoint" />
            <mxPoint x="440" y="650" as="targetPoint" />
            <Array as="points">
              <mxPoint x="620" y="740" />
            </Array>
          </mxGeometry>
        </mxCell>
        <mxCell id="pcfbquQIk59ZZeOw6JVN-33" value="FrameC" style="text;html=1;strokeColor=none;fillColor=none;align=center;verticalAlign=middle;whiteSpace=wrap;rounded=0;fontSize=16;" vertex="1" parent="1">
          <mxGeometry x="150" y="585" width="40" height="20" as="geometry" />
        </mxCell>
        <mxCell id="pcfbquQIk59ZZeOw6JVN-34" value="FrameA" style="text;html=1;strokeColor=none;fillColor=none;align=center;verticalAlign=middle;whiteSpace=wrap;rounded=0;fontSize=16;" vertex="1" parent="1">
          <mxGeometry x="150" y="335" width="40" height="20" as="geometry" />
        </mxCell>
        <mxCell id="pcfbquQIk59ZZeOw6JVN-35" value="FrameB" style="text;html=1;strokeColor=none;fillColor=none;align=center;verticalAlign=middle;whiteSpace=wrap;rounded=0;fontSize=16;" vertex="1" parent="1">
          <mxGeometry x="150" y="405" width="40" height="20" as="geometry" />
        </mxCell>
        <mxCell id="pcfbquQIk59ZZeOw6JVN-36" value="frame.csp_boundary" style="edgeLabel;html=1;align=center;verticalAlign=middle;resizable=0;points=[];fontColor=#0000FF;" connectable="0" vertex="1" parent="1">
          <mxGeometry x="500" y="630" as="geometry">
            <mxPoint x="-7" y="92" as="offset" />
          </mxGeometry>
        </mxCell>
      </root>
    </mxGraphModel>
  </diagram>
</mxfile>
